# xmcd CD database file
#
# Track frame offsets:
#	150
#	18751
#	36315
#	58254
#	74804
#	90574
#
# Disc length: 1383 seconds
#
# Submitted via: cddb-tool 0.4.5
#
#blues,classical,country,data,folk,jazz,newage,reggae,rock,soundtrack,misc
# Revision: 0
# Processed by: cddbd v1.5.1PL0 Copyright (c) Steve Scherf et al.
#
DISCID=50056506
DTITLE=Enrico Mescoli - Tradotti in niente
DYEAR=2004
DGENRE=Alternative
TTITLE0=Fragile
TTITLE1=Tradotti in niente
TTITLE2=Armonie crollate
TTITLE3=Deserto di rame
TTITLE4=Neve
TTITLE5=Vaseline
EXTD=www.enricomescoli.it
EXTT0=
EXTT1=
EXTT2=
EXTT3=
EXTT4=
EXTT5=
PLAYORDER=
